<?xml version="1.0" encoding="utf-8"?>
<!-- Generator: Adobe Illustrator 19.0.1, SVG Export Plug-In . SVG Version: 6.00 Build 0)  -->
<svg version="1.1" id="Layer_1" xmlns="http://www.w3.org/2000/svg" xmlns:xlink="http://www.w3.org/1999/xlink" x="0px" y="0px"
	 viewBox="0 0 126 65.1" style="enable-background:new 0 0 126 65.1;" xml:space="preserve">
<style type="text/css">
	.st0{fill:#FFFFFF;}
</style>
<path class="st0" d="M3.1,32.4c5.9-1.2,11.9-1.8,17.9-1.8c1.5,0.1,2.9,0.1,4.4,0.1c0.9,0,1.3-0.7,1.3-1.4c1.4-0.1,2.7-0.2,4.1-0.3
	c1.3-0.1,1.9-2,0.7-2.6c0.3-0.7,0-1.7-0.9-1.9c-4.3-0.6-8.6-1-12.9-1.1C22.8,21.5,28,20,33.4,19c1.7-0.2,3.4-0.3,5.2-0.3
	c11.2-0.2,22.6,1.5,33.5,4.2c5.4,1.3,10.7,3.1,15.9,5.4c2,1.2,4,2.4,5.9,3.7c8.5,7,16,15.4,22.5,24.3c1.2,2.5,2.2,5.1,3,7.8
	c0.4,1.4,2.2,1,2.3-0.2c0.7,0.5,2.1,0.2,2-0.9c-0.5-4.8-1.9-9-3.8-12.8c2,3,3.7,6.1,5,9.4c0.3,0.7,1.5,0.2,1.2-0.5
	c-6.9-20.4-26.9-33.7-47-39.9c-4.4-2.3-8.9-4.1-13.7-5.6c-18.4-5.6-39.1-4.1-55.5,6c1-2,1.9-3.9,2.9-5.9c0.3,0,0.5-0.2,0.6-0.5
	c0.3-1,0.4-1.1,0.4-1.6c1.6-3.2,3.1-6.5,4.7-9.7c0.8-1.6-1.5-2.9-2.4-1.3c0,0,0,0.1-0.1,0.1c-0.4-0.1-0.8,0-1.1,0.4
	c-0.1,0.1-0.1,0.2-0.2,0.3l0,0c0,0,0,0,0,0c-0.1,0.1-0.2,0.3-0.3,0.4c-0.6-0.6-1.6-0.8-2.1,0.2c-0.7,1.5-1.4,3.1-2.1,4.6
	C9.9,6.7,9.7,6.9,9.6,7.2c-0.7,1.6-1.3,3.1-2,4.7c-2.1,4.4-4.1,8.9-6.2,13.3c-1,0.2-1.4,1.3-0.9,2.1c-0.1,0.3-0.2,0.5-0.4,0.8
	c-0.5,1.2,0.7,2.3,1.6,1.9c-0.1,0.2-0.1,0.3-0.2,0.5C1,31.5,1.9,32.6,3.1,32.4z M120.1,57.5c-0.1-0.1-0.1-0.2-0.2-0.3
	c-2.4-6.7-6.2-12.6-11.1-17.5C114,44.6,118.1,50.4,120.1,57.5z M6.7,29c-0.5,0.1-1.1,0.2-1.6,0.3c0.1-0.2,0.2-0.3,0.2-0.5
	C5.8,28.9,6.3,28.9,6.7,29z M58.9,17.8c2.2,0.2,4.5,0.5,6.7,0.8c1.1,0.3,2.3,0.7,3.4,1.1C65.6,19,62.3,18.3,58.9,17.8z M13.6,20.7
	c-0.6,0.2-1.2,0.4-1.8,0.5c11.1-6.6,24.3-9.1,37.2-8.1C36.8,12.4,24.4,14.7,13.6,20.7z M30.4,17c3-0.7,6.1-1.1,9.2-1.3
	c-2.3,0.3-4.6,0.6-6.9,1C31.9,16.8,31.1,16.9,30.4,17z"/>
</svg>
