<?xml version="1.0" encoding="utf-8"?>
<!-- Generator: Adobe Illustrator 19.0.1, SVG Export Plug-In . SVG Version: 6.00 Build 0)  -->
<svg version="1.1" id="Layer_1" xmlns="http://www.w3.org/2000/svg" xmlns:xlink="http://www.w3.org/1999/xlink" x="0px" y="0px"
	 viewBox="0 0 488.7 128" style="enable-background:new 0 0 488.7 128;" xml:space="preserve">
<style type="text/css">
	.st0{fill:#FFFFFF;}
	.st1{fill:#FFC107;}
</style>
<path class="st0" d="M378.7,28.1C304.1-63.6,154.8,96.5,247.8,121c72.5,19.1,181-24.3,152-81.6C371.8-16,221.4-5.2,215.2,54.1
	c-6.9,65.9,125.9,94.6,192.7,57.3c0.6-0.4-0.2-1.1-0.9-0.8c-54,26.9-138.5,17.4-175.6-21c-33.1-34.2,0.4-70.7,52.4-81
	c53.6-10.6,113.6,7.7,117.6,48.5c3.9,39.4-53.5,57.7-101.1,63.6c-30.4,3.7-67.4,0.8-76.6-22.8c-6.9-17.8,5.3-38.3,17.9-53.5
	c31.2-37.7,95.1-60.3,136-16C378,29,379.1,28.6,378.7,28.1L378.7,28.1z"/>
<g>
	<path class="st1" d="M29.3,60.8h11.9v17.6c-2.4,1.6-5.3,2.9-8.7,4c-3.5,1-6.7,1.6-9.7,1.6c-4.4,0-8.3-1-11.7-2.8
		c-3.5-1.9-6.2-4.5-8.1-7.9C1,69.8,0,66.1,0,61.9c0-4.2,1-7.9,3.1-11.2s4.9-6,8.5-7.8S19.2,40,23.7,40c3.3,0,6.6,0.6,9.9,1.8
		c3.3,1.2,6.1,2.8,8.3,4.8L34,56.1c-1.4-1.4-3.1-2.5-4.9-3.3c-1.9-0.8-3.7-1.2-5.4-1.2c-1.8,0-3.4,0.5-4.8,1.3
		c-1.4,0.9-2.6,2.1-3.4,3.7c-0.8,1.6-1.2,3.3-1.2,5.3c0,2,0.4,3.8,1.2,5.4c0.8,1.6,1.9,2.8,3.4,3.7c1.4,0.9,3.1,1.3,4.9,1.3
		c1.5,0,3.4-0.5,5.5-1.4V60.8z"/>
	<path class="st1" d="M46.4,40.9H82v10.6H60.3v5.2H80v10.6H60.3v5.2h22.2v10.6H46.4V40.9z"/>
	<path class="st1" d="M85.1,40.9h37.9v11h-12v31.1H97V51.8H85.1V40.9z"/>
	<path class="st1" d="M169.7,23.2l1.2,0.4h1.8c1.4,0,2.2,0.7,2.2,2.2c1.2,5.3,2.6,14.6,4.2,28c1.7,10,2.5,19.4,2.5,28.2v1.8
		c0,7.6-2.4,14.7-7.3,21.4c-3.4,4.1-7.5,6.1-12.4,6.1h-0.3c-8.1,0-15.1-5.2-21.1-15.5c-2.6-4.6-3.8-9-3.8-13.4v-0.8
		c0-3.7,1.3-6.3,4-7.9l0.8-0.1c0.2,0,0.5,0.3,0.8,0.8h0.6c0.4,0,0.9,2.2,1.5,6.7c1,5.1,2.1,8.7,3.3,10.9c4.8,8.6,9.2,12.9,13.2,12.9
		c2.1,0,4.5-1.6,7.3-4.7c3.7-5,5.6-12.3,5.6-21.9c-0.3-9-0.9-14-1.8-14.8c-0.5-2.2-1.3-7-2.2-14.3c-0.1,0-1.3,2.1-3.7,6.4
		c-4.8,8.3-10.6,12.5-17.4,12.5c-4.4,0-7.2-1.7-8.4-5.2c-0.4-1.5-0.6-3.3-0.6-5.3c0-5.2,1.9-12.1,5.7-20.6c1.6-2.8,3.3-4.1,5.1-4.1
		h0.7c1.6,0,2.8,0.7,3.7,2.1l0.2,1.3c0,1-0.8,2.7-2.3,5.2c-2.4,5.3-3.5,10.3-3.5,14.9c0.2,2.8,0.3,4.1,0.4,4.1
		c3.3-1,6.7-4.6,10.3-11c1.5-2.8,3-6.9,4.5-12.3c0.8-3.2,1.6-7.2,2.2-11.9c0.2-0.3,0.5-0.4,0.9-0.4l1.7-1.6H169.7z M149.4,28.7
		l0.3-0.1v0.4l-0.3-0.1V28.7z"/>
	<path class="st1" d="M202.4,27.9c7.4,0,13.2,8.6,17.2,25.7c0.6,3.1,0.8,6.1,0.8,8.9v0.5c0,6.6-1.5,12.1-4.4,16.5
		c-3.5,4.1-7.4,6.1-11.7,6.1h-1.3c-5,0-9.5-2.9-13.4-8.8c-3.4-5.9-5.2-12.6-5.2-20.1v-1.8c0-9.3,1.8-17,5.3-22.9
		c1.8-1.8,3.6-2.9,5.5-3.2c2.8-0.6,5-0.8,6.5-0.8H202.4z M196.3,39h-0.4c-0.5,0.1-1.1,1.8-1.7,5c-1,3.6-1.5,7.2-1.5,10.9v0.2
		c0,11.1,2.8,18.2,8.4,21.4c1.3,0.5,2.4,0.8,3.3,0.8h0.5c3,0,5.5-2.3,7.5-6.8c0.4-1.6,0.6-3.8,0.6-6.5v-1.4c0-7-1.6-13.9-4.7-20.8
		c-2.7-4.1-4.9-6.2-6.6-6.2h-0.4c-1.2,0-2.2,1.2-3,3.7L196.3,39z"/>
	<path class="st1" d="M236.9,40.9h14.8l10.4,22l10.4-22h14.8v42.1h-12.2v-23l-8.5,19h-9.1l-8.5-19v23h-12.2V40.9z"/>
	<path class="st1" d="M293.3,40.9h13.9v42.1h-13.9V40.9z"/>
	<path class="st1" d="M337.1,52c-2.8-1-5.1-1.5-6.8-1.5c-1.7,0-2.6,0.6-2.6,1.9c0,1,0.5,1.7,1.7,2.2c1.1,0.5,2.8,1.1,5.2,1.7
		c3,0.8,5.5,1.7,7.5,2.5c2,0.8,3.7,2.2,5.2,4c1.5,1.8,2.2,4.2,2.2,7.2c0,3-0.8,5.6-2.4,7.7c-1.6,2.1-3.7,3.6-6.4,4.6
		c-2.7,1-5.7,1.5-8.9,1.5c-3.7,0-7.5-0.6-11.2-1.8s-7-2.9-9.8-5l5.2-10.5c2.1,1.8,4.8,3.4,8,4.7c3.2,1.3,5.9,1.9,8,1.9
		c1,0,1.9-0.2,2.5-0.6c0.6-0.4,0.9-1,0.9-1.8c0-1-0.6-1.7-1.7-2.2c-1.1-0.5-2.9-1.1-5.4-1.7c-3-0.8-5.4-1.5-7.4-2.4
		c-2-0.8-3.7-2.1-5.1-3.8c-1.4-1.7-2.2-4-2.2-6.9c0-2.8,0.7-5.2,2.2-7.3c1.5-2.1,3.6-3.7,6.3-4.8c2.7-1.1,5.9-1.7,9.5-1.7
		c3.3,0,6.5,0.5,9.8,1.4c3.3,0.9,6.1,2.1,8.5,3.7l-5,10.6C342.4,54.1,339.9,53,337.1,52z"/>
	<path class="st1" d="M353,40.9h35.6v10.6h-21.7v5.2h19.7v10.6h-19.7v5.2h22.2v10.6H353V40.9z"/>
	<path class="st1" d="M406.4,40.9H442v10.6h-21.7v5.2H440v10.6h-19.7v5.2h22.2v10.6h-36.1V40.9z"/>
	<path class="st1" d="M476.1,40.9h12.6v42.1H477l-16.6-21.5v21.5h-12.7V40.9h11.6l16.6,21.6V40.9z"/>
</g>
</svg>
